<?xml version="1.0" standalone="no"?><svg xmlns:xlink="http://www.w3.org/1999/xlink" xmlns="http://www.w3.org/2000/svg" viewBox="0 0 1000 499.99999999999994" preserveAspectRatio="xMaxYMax slice"><g transform="scale(1.408450704225352)"><rect x="0" y="0" width="710" height="355" fill="#ffffff"/><rect x="0" y="0" width="71" height="71" fill="#1940e1"/><path d="M 0 71 A 71 71 0 0 0 71 0 L 0 0" fill="#ffbece"/><rect x="71" y="0" width="71" height="71" fill="#ffffff"/><rect x="71" y="0" width="35.5" height="35.5" fill="#3053e4"/><path d="M 71 35.5 A 35.5 35.5 0 0 1 106.5 0 L 106.5 8.875 A 26.625 26.625 0 0 0 79.875 35.5" fill="#ffa2b8"/><rect x="106.5" y="0" width="35.5" height="35.5" fill="#c7d1f8"/><path d="M 106.5 0 A 35.5 35.5 0 0 1 142 35.5 L 133.125 35.5 A 26.625 26.625 0 0 0 106.5 8.875" fill="#f5f7fe"/><rect x="71" y="35.5" width="35.5" height="35.5" fill="#ff6187"/><path d="M 71 35.5 A 35.5 35.5 0 0 0 106.5 71 L 106.5 62.125 A 26.625 26.625 0 0 1 79.875 35.5" fill="#a4b4f3"/><rect x="106.5" y="35.5" width="35.5" height="35.5" fill="#eaeefc"/><path d="M 106.5 71 A 35.5 35.5 0 0 0 142 35.5 L 133.125 35.5 A 26.625 26.625 0 0 1 106.5 62.125" fill="#e4e9fc"/><rect x="142" y="0" width="71" height="71" fill="#ff6a8e"/><path d="M 142 0 A 71 71 0 0 1  213 71 L 142 0 A 71 71 0 0 0 213 71" fill="#526fe9"/><rect x="213" y="0" width="71" height="71" fill="#8c9ff0"/><path d="M 213 71 A 71 71 0 0 0 284 0 L 213 0" fill="#6b84ec"/><rect x="284" y="0" width="71" height="71" fill="#ffbacb"/><polygon points="284,0 355,71 284,71" fill="#d6ddfa"/><rect x="355" y="0" width="71" height="71" fill="#ff3d6b"/><polygon points="355,0 426,0 355,71" fill="#3658e5"/><rect x="426" y="0" width="71" height="71" fill="#ffdae3"/><path d="M 426 0 A 71 71 0 0 1 497 71 L 426 71" fill="#d7defa"/><rect x="497" y="0" width="71" height="71" fill="#fff8fa"/><polygon points="568,0 568,71 497,71" fill="#ff4873"/><rect x="568" y="0" width="71" height="71" fill="#ffffff"/><rect x="568" y="0" width="35.5" height="35.5" fill="#6b84ec"/><polygon points="603.5,0 603.5,35.5 568,35.5" fill="#d0d8f9"/><rect x="603.5" y="0" width="35.5" height="35.5" fill="#ffccd8"/><polygon points="603.5,0 639,0 603.5,35.5" fill="#f0f3fd"/><rect x="568" y="35.5" width="35.5" height="35.5" fill="#ecf0fd"/><polygon points="568,35.5 603.5,35.5 603.5,71" fill="#7c92ee"/><rect x="603.5" y="35.5" width="35.5" height="35.5" fill="#ffa1b8"/><polygon points="603.5,35.5 639,71 603.5,71" fill="#ff83a0"/><rect x="639" y="0" width="71" height="71" fill="#ffffff"/><rect x="639" y="0" width="35.5" height="35.5" fill="#d4dbf9"/><polygon points="674.5,0 674.5,35.5 639,35.5" fill="#8398ef"/><rect x="674.5" y="0" width="35.5" height="35.5" fill="#aab8f4"/><polygon points="674.5,0 710,0 674.5,35.5" fill="#ff6a8d"/><rect x="639" y="35.5" width="35.5" height="35.5" fill="#ff3b6a"/><polygon points="639,35.5 674.5,35.5 674.5,71" fill="#ff668a"/><rect x="674.5" y="35.5" width="35.5" height="35.5" fill="#ff8fa9"/><polygon points="674.5,35.5 710,71 674.5,71" fill="#5773e9"/><rect x="0" y="71" width="71" height="71" fill="#8fa2f0"/><rect x="0" y="71" width="71" height="71" fill="#a1b1f3"/><rect x="71" y="71" width="71" height="71" fill="#ffffff"/><rect x="71" y="71" width="35.5" height="35.5" fill="#6781eb"/><path d="M 71 71 A 35.5 35.5 0 0 0 106.5 106.5 L 106.5 71" fill="#ff8ea9"/><rect x="106.5" y="71" width="35.5" height="35.5" fill="#ffdde5"/><path d="M 106.5 106.5 A 35.5 35.5 0 0 0 142 71 L 106.5 71" fill="#ffbccc"/><rect x="71" y="106.5" width="35.5" height="35.5" fill="#fffbfc"/><path d="M 71 142 A 35.5 35.5 0 0 1  106.5 106.5 L 106.5 142" fill="#fefeff"/><rect x="106.5" y="106.5" width="35.5" height="35.5" fill="#d7defa"/><path d="M 106.5 106.5 A 35.5 35.5 0 0 1 142 142 L 106.5 142" fill="#cdd5f9"/><rect x="142" y="71" width="71" height="71" fill="#ffbfce"/><rect x="142" y="71" width="71" height="71" fill="#ffe3ea"/><rect x="213" y="71" width="71" height="71" fill="#788eed"/><polygon points="213,71 284,71 284,142" fill="#ff537c"/><rect x="284" y="71" width="71" height="71" fill="#ff7092"/><polygon points="284,71 355,142 284,142" fill="#1f45e2"/><rect x="355" y="71" width="71" height="71" fill="#ff4571"/><rect x="355" y="71" width="71" height="71" fill="#ffc3d1"/><rect x="426" y="71" width="71" height="71" fill="#ff658a"/><rect x="426" y="71" width="71" height="71" fill="#fff7f9"/><rect x="497" y="71" width="71" height="71" fill="#ffffff"/><rect x="497" y="71" width="35.5" height="35.5" fill="#abb9f4"/><polygon points="532.5,71 532.5,106.5 497,106.5" fill="#2046e2"/><rect x="532.5" y="71" width="35.5" height="35.5" fill="#2247e2"/><polygon points="532.5,71 568,106.5 532.5,106.5" fill="#fbfcff"/><rect x="497" y="106.5" width="35.5" height="35.5" fill="#e3e8fb"/><polygon points="497,106.5 532.5,106.5 532.5,142" fill="#ff97af"/><rect x="532.5" y="106.5" width="35.5" height="35.5" fill="#ff4773"/><polygon points="532.5,106.5 568,106.5 532.5,142" fill="#738bed"/><rect x="568" y="71" width="71" height="71" fill="#ffa5ba"/><polygon points="568,71 639,71 639,142" fill="#ff8aa5"/><rect x="639" y="71" width="71" height="71" fill="#d2daf9"/><polygon points="639,71 710,142 639,142" fill="#ff3565"/><rect x="0" y="142" width="71" height="71" fill="#ff7495"/><rect x="0" y="142" width="71" height="71" fill="#ffbecd"/><rect x="71" y="142" width="71" height="71" fill="#ffffff"/><rect x="71" y="142" width="35.5" height="35.5" fill="#ff4672"/><path d="M 71 142 A 35.5 35.5 0 0 1 106.5 177.5 L 71 177.5" fill="#98aaf2"/><rect x="106.5" y="142" width="35.5" height="35.5" fill="#cad3f8"/><path d="M 106.5 177.5 A 35.5 35.5 0 0 1  142 142 L 142 177.5" fill="#738aed"/><rect x="71" y="177.5" width="35.5" height="35.5" fill="#5975e9"/><path d="M 71 213 A 35.5 35.5 0 0 0 106.5 177.5 L 71 177.5" fill="#ff87a4"/><rect x="106.5" y="177.5" width="35.5" height="35.5" fill="#f0f2fd"/><path d="M 106.5 177.5 A 35.5 35.5 0 0 0 142 213 L 142 177.5" fill="#ffeef2"/><rect x="142" y="142" width="71" height="71" fill="#ff96af"/><path d="M 142 213 A 71 71 0 0 0 213 142 L 142 142" fill="#ff3e6b"/><rect x="213" y="142" width="71" height="71" fill="#ffa4ba"/><path d="M 213 142 A 71 71 0 0 0 284 213 L 284 142" fill="#ff3c6b"/><rect x="284" y="142" width="71" height="71" fill="#ffffff"/><rect x="284" y="142" width="35.5" height="35.5" fill="#768ded"/><path d="M 284 177.5 A 35.5 35.5 0 0 0 319.5 142 L 284 142" fill="#d5dcfa"/><rect x="319.5" y="142" width="35.5" height="35.5" fill="#768ded"/><path d="M 319.5 142 A 35.5 35.5 0 0 0 355 177.5 L 355 142" fill="#ff6a8e"/><rect x="284" y="177.5" width="35.5" height="35.5" fill="#ff809e"/><path d="M 284 177.5 A 35.5 35.5 0 0 1 319.5 213 L 284 213" fill="#acbaf4"/><rect x="319.5" y="177.5" width="35.5" height="35.5" fill="#ffc5d3"/><path d="M 319.5 213 A 35.5 35.5 0 0 1  355 177.5 L 355 213" fill="#8c9ff0"/><rect x="355" y="142" width="71" height="71" fill="#ff3e6c"/><path d="M 355 142 A 71 71 0 0 0 426 213 L 426 142" fill="#ffe8ee"/><rect x="426" y="142" width="71" height="71" fill="#ffffff"/><rect x="426" y="142" width="35.5" height="35.5" fill="#2046e2"/><path d="M 426 142 A 35.5 35.5 0 0 0 461.5 177.5 L 461.5 142" fill="#bdc9f6"/><rect x="461.5" y="142" width="35.5" height="35.5" fill="#fefeff"/><path d="M 461.5 177.5 A 35.5 35.5 0 0 0 497 142 L 461.5 142" fill="#ffd4de"/><rect x="426" y="177.5" width="35.5" height="35.5" fill="#b4c1f5"/><path d="M 426 213 A 35.5 35.5 0 0 1  461.5 177.5 L 461.5 213" fill="#4e6ce8"/><rect x="461.5" y="177.5" width="35.5" height="35.5" fill="#ffeff3"/><path d="M 461.5 177.5 A 35.5 35.5 0 0 1 497 213 L 461.5 213" fill="#ff6388"/><rect x="497" y="142" width="71" height="71" fill="#ffffff"/><rect x="497" y="142" width="35.5" height="35.5" fill="#ff6086"/><path d="M 497 142 A 35.5 35.5 0 0 1 532.5 177.5 L 497 177.5" fill="#ff5a81"/><rect x="532.5" y="142" width="35.5" height="35.5" fill="#ffc4d2"/><path d="M 532.5 177.5 A 35.5 35.5 0 0 1  568 142 L 568 177.5" fill="#c4cef7"/><rect x="497" y="177.5" width="35.5" height="35.5" fill="#dce2fa"/><path d="M 497 213 A 35.5 35.5 0 0 0 532.5 177.5 L 497 177.5" fill="#ff5c83"/><rect x="532.5" y="177.5" width="35.5" height="35.5" fill="#7b92ee"/><path d="M 532.5 177.5 A 35.5 35.5 0 0 0 568 213 L 568 177.5" fill="#5c78ea"/><rect x="568" y="142" width="71" height="71" fill="#ffffff"/><rect x="568" y="142" width="35.5" height="35.5" fill="#ff4672"/><path d="M 568 177.5 A 35.5 35.5 0 0 0 603.5 142 L 568 142" fill="#506ee8"/><rect x="603.5" y="142" width="35.5" height="35.5" fill="#5975e9"/><path d="M 603.5 142 A 35.5 35.5 0 0 0 639 177.5 L 639 142" fill="#728aed"/><rect x="568" y="177.5" width="35.5" height="35.5" fill="#4161e6"/><path d="M 568 177.5 A 35.5 35.5 0 0 1 603.5 213 L 568 213" fill="#ffc2d0"/><rect x="603.5" y="177.5" width="35.5" height="35.5" fill="#ff83a1"/><path d="M 603.5 213 A 35.5 35.5 0 0 1  639 177.5 L 639 213" fill="#ff89a5"/><rect x="639" y="142" width="71" height="71" fill="#c7d1f8"/><rect x="639" y="142" width="71" height="71" fill="#ffdbe4"/><rect x="0" y="213" width="71" height="71" fill="#ffffff"/><rect x="0" y="213" width="35.5" height="35.5" fill="#e3e8fb"/><polygon points="35.5,213 35.5,248.5 0,248.5" fill="#ff809e"/><rect x="35.5" y="213" width="35.5" height="35.5" fill="#ffd3de"/><polygon points="35.5,213 71,248.5 35.5,248.5" fill="#ff95ae"/><rect x="0" y="248.5" width="35.5" height="35.5" fill="#ff416e"/><polygon points="0,248.5 35.5,248.5 0,284" fill="#1a40e1"/><rect x="35.5" y="248.5" width="35.5" height="35.5" fill="#ffb0c3"/><polygon points="35.5,248.5 71,248.5 71,284" fill="#ff7193"/><rect x="71" y="213" width="71" height="71" fill="#ffffff"/><rect x="71" y="213" width="35.5" height="35.5" fill="#ff7f9d"/><circle cx="88.75" cy="230.75" r="17.75" fill="#ffc7d4"/><rect x="106.5" y="213" width="35.5" height="35.5" fill="#8a9ef0"/><rect x="106.5" y="213" width="35.5" height="35.5" fill="#395ae5"/><rect x="71" y="248.5" width="35.5" height="35.5" fill="#ff99b1"/><circle cx="88.75" cy="266.25" r="17.75" fill="#ffb2c5"/><rect x="106.5" y="248.5" width="35.5" height="35.5" fill="#b1bef5"/><rect x="106.5" y="248.5" width="35.5" height="35.5" fill="#f9fafe"/><rect x="142" y="213" width="71" height="71" fill="#ffffff"/><rect x="142" y="213" width="35.5" height="35.5" fill="#ffdde5"/><path d="M 142 248.5 A 35.5 35.5 0 0 0 177.5 213 L 142 213" fill="#fefeff"/><rect x="177.5" y="213" width="35.5" height="35.5" fill="#9cacf2"/><path d="M 177.5 213 A 35.5 35.5 0 0 0 213 248.5 L 213 213" fill="#ff86a3"/><rect x="142" y="248.5" width="35.5" height="35.5" fill="#ffd8e1"/><path d="M 142 248.5 A 35.5 35.5 0 0 1 177.5 284 L 142 284" fill="#ff3f6d"/><rect x="177.5" y="248.5" width="35.5" height="35.5" fill="#2f52e4"/><path d="M 177.5 284 A 35.5 35.5 0 0 1  213 248.5 L 213 284" fill="#ffb7c8"/><rect x="213" y="213" width="71" height="71" fill="#ffffff"/><rect x="213" y="213" width="35.5" height="35.5" fill="#3d5de6"/><path d="M 213 248.5 A 35.5 35.5 0 0 1 248.5 213 L 248.5 221.875 A 26.625 26.625 0 0 0 221.875 248.5" fill="#ff547d"/><rect x="248.5" y="213" width="35.5" height="35.5" fill="#b5c2f5"/><path d="M 248.5 213 A 35.5 35.5 0 0 1 284 248.5 L 275.125 248.5 A 26.625 26.625 0 0 0 248.5 221.875" fill="#ffebf0"/><rect x="213" y="248.5" width="35.5" height="35.5" fill="#758ced"/><path d="M 213 248.5 A 35.5 35.5 0 0 0 248.5 284 L 248.5 275.125 A 26.625 26.625 0 0 1 221.875 248.5" fill="#ff7092"/><rect x="248.5" y="248.5" width="35.5" height="35.5" fill="#ff507a"/><path d="M 248.5 284 A 35.5 35.5 0 0 0 284 248.5 L 275.125 248.5 A 26.625 26.625 0 0 1 248.5 275.125" fill="#ff678b"/><rect x="284" y="213" width="71" height="71" fill="#ffffff"/><rect x="284" y="213" width="35.5" height="35.5" fill="#ff8ea9"/><path d="M 284 248.5 A 35.5 35.5 0 0 1  319.5 213 L 319.5 248.5" fill="#ffebf0"/><rect x="319.5" y="213" width="35.5" height="35.5" fill="#adbbf4"/><path d="M 319.5 213 A 35.5 35.5 0 0 1 355 248.5 L 319.5 248.5" fill="#94a6f1"/><rect x="284" y="248.5" width="35.5" height="35.5" fill="#b7c3f6"/><path d="M 284 248.5 A 35.5 35.5 0 0 0 319.5 284 L 319.5 248.5" fill="#ffabbf"/><rect x="319.5" y="248.5" width="35.5" height="35.5" fill="#acbaf4"/><path d="M 319.5 284 A 35.5 35.5 0 0 0 355 248.5 L 319.5 248.5" fill="#ffa3b9"/><rect x="355" y="213" width="71" height="71" fill="#c0caf7"/><polygon points="355,213 426,213 355,284" fill="#8297ef"/><rect x="426" y="213" width="71" height="71" fill="#2248e2"/><rect x="426" y="213" width="71" height="71" fill="#9dadf2"/><rect x="497" y="213" width="71" height="71" fill="#dce2fa"/><path d="M 497 213 A 71 71 0 0 1  568 284 L 497 213 A 71 71 0 0 0 568 284" fill="#ff7e9c"/><rect x="568" y="213" width="71" height="71" fill="#ff7596"/><polygon points="568,213 639,284 568,284" fill="#ff9ab2"/><rect x="639" y="213" width="71" height="71" fill="#5a75ea"/><polygon points="639,213 710,213 639,284" fill="#ff83a0"/><rect x="0" y="284" width="71" height="71" fill="#ffffff"/><rect x="0" y="284" width="35.5" height="35.5" fill="#ffc2d1"/><circle cx="17.75" cy="301.75" r="17.75" fill="#bdc8f6"/><rect x="35.5" y="284" width="35.5" height="35.5" fill="#5f7aea"/><rect x="35.5" y="284" width="35.5" height="35.5" fill="#4161e6"/><rect x="0" y="319.5" width="35.5" height="35.5" fill="#ffced9"/><circle cx="17.75" cy="337.25" r="17.75" fill="#5672e9"/><rect x="35.5" y="319.5" width="35.5" height="35.5" fill="#6c85ec"/><rect x="35.5" y="319.5" width="35.5" height="35.5" fill="#ff4773"/><rect x="71" y="284" width="71" height="71" fill="#ffc0cf"/><polygon points="142,284 142,355 71,355" fill="#a9b8f4"/><rect x="142" y="284" width="71" height="71" fill="#ffffff"/><rect x="142" y="284" width="35.5" height="35.5" fill="#ff86a3"/><circle cx="159.75" cy="301.75" r="17.75" fill="#4161e6"/><rect x="177.5" y="284" width="35.5" height="35.5" fill="#ff6f92"/><rect x="177.5" y="284" width="35.5" height="35.5" fill="#ffe6ec"/><rect x="142" y="319.5" width="35.5" height="35.5" fill="#ff9db4"/><circle cx="159.75" cy="337.25" r="17.75" fill="#ff5f85"/><rect x="177.5" y="319.5" width="35.5" height="35.5" fill="#ffdce5"/><rect x="177.5" y="319.5" width="35.5" height="35.5" fill="#c5cff7"/><rect x="213" y="284" width="71" height="71" fill="#ffffff"/><rect x="213" y="284" width="35.5" height="35.5" fill="#5673e9"/><path d="M 213 284 A 35.5 35.5 0 0 1 248.5 319.5 L 213 319.5" fill="#fff2f5"/><rect x="248.5" y="284" width="35.5" height="35.5" fill="#ff6e91"/><path d="M 248.5 319.5 A 35.5 35.5 0 0 1  284 284 L 284 319.5" fill="#ff4f79"/><rect x="213" y="319.5" width="35.5" height="35.5" fill="#bdc8f6"/><path d="M 213 355 A 35.5 35.5 0 0 0 248.5 319.5 L 213 319.5" fill="#2046e2"/><rect x="248.5" y="319.5" width="35.5" height="35.5" fill="#dce2fa"/><path d="M 248.5 319.5 A 35.5 35.5 0 0 0 284 355 L 284 319.5" fill="#869aef"/><rect x="284" y="284" width="71" height="71" fill="#ffffff"/><rect x="284" y="284" width="35.5" height="35.5" fill="#ff4974"/><polygon points="319.5,284 319.5,319.5 284,319.5" fill="#ff9eb5"/><rect x="319.5" y="284" width="35.5" height="35.5" fill="#b5c1f5"/><polygon points="319.5,284 355,319.5 319.5,319.5" fill="#b3c0f5"/><rect x="284" y="319.5" width="35.5" height="35.5" fill="#3859e5"/><polygon points="284,319.5 319.5,319.5 284,355" fill="#ff92ac"/><rect x="319.5" y="319.5" width="35.5" height="35.5" fill="#284de3"/><polygon points="319.5,319.5 355,319.5 355,355" fill="#ff86a3"/><rect x="355" y="284" width="71" height="71" fill="#ffffff"/><rect x="355" y="284" width="35.5" height="35.5" fill="#ffe6ec"/><circle cx="372.75" cy="301.75" r="17.75" fill="#fff0f4"/><rect x="390.5" y="284" width="35.5" height="35.5" fill="#b1bef5"/><rect x="390.5" y="284" width="35.5" height="35.5" fill="#90a3f1"/><rect x="355" y="319.5" width="35.5" height="35.5" fill="#4060e6"/><circle cx="372.75" cy="337.25" r="17.75" fill="#c5cff8"/><rect x="390.5" y="319.5" width="35.5" height="35.5" fill="#ffb5c7"/><rect x="390.5" y="319.5" width="35.5" height="35.5" fill="#1940e1"/><rect x="426" y="284" width="71" height="71" fill="#ffffff"/><rect x="426" y="284" width="35.5" height="35.5" fill="#f5f6fe"/><path d="M 426 319.5 A 35.5 35.5 0 0 1 461.5 284 L 461.5 292.875 A 26.625 26.625 0 0 0 434.875 319.5" fill="#3859e5"/><rect x="461.5" y="284" width="35.5" height="35.5" fill="#ffb9ca"/><path d="M 461.5 284 A 35.5 35.5 0 0 1 497 319.5 L 488.125 319.5 A 26.625 26.625 0 0 0 461.5 292.875" fill="#bdc8f6"/><rect x="426" y="319.5" width="35.5" height="35.5" fill="#4262e7"/><path d="M 426 319.5 A 35.5 35.5 0 0 0 461.5 355 L 461.5 346.125 A 26.625 26.625 0 0 1 434.875 319.5" fill="#9eaef2"/><rect x="461.5" y="319.5" width="35.5" height="35.5" fill="#3053e4"/><path d="M 461.5 355 A 35.5 35.5 0 0 0 497 319.5 L 488.125 319.5 A 26.625 26.625 0 0 1 461.5 346.125" fill="#ff88a4"/><rect x="497" y="284" width="71" height="71" fill="#ffb6c7"/><rect x="497" y="284" width="71" height="71" fill="#284ce3"/><rect x="568" y="284" width="71" height="71" fill="#ff87a4"/><rect x="568" y="284" width="71" height="71" fill="#d5dcfa"/><rect x="639" y="284" width="71" height="71" fill="#ffffff"/><rect x="639" y="284" width="35.5" height="35.5" fill="#778eed"/><polygon points="674.5,284 674.5,319.5 639,319.5" fill="#ff688c"/><rect x="674.5" y="284" width="35.5" height="35.5" fill="#ff416e"/><polygon points="674.5,284 710,319.5 674.5,319.5" fill="#ff5b82"/><rect x="639" y="319.5" width="35.5" height="35.5" fill="#ffe8ed"/><polygon points="639,319.5 674.5,319.5 674.5,355" fill="#ff527b"/><rect x="674.5" y="319.5" width="35.5" height="35.5" fill="#2c4fe4"/><polygon points="674.5,319.5 710,319.5 674.5,355" fill="#ffaec1"/></g></svg>